<mxfile host="app.diagrams.net" modified="2022-07-18T14:02:27.914Z" agent="5.0 (X11; Linux x86_64) AppleWebKit/537.36 (KHTML, like Gecko) Chrome/102.0.0.0 Safari/537.36" etag="uc19k_DBrsBOqquj7CHV" version="20.1.1" type="github">
  <diagram id="r1uXpdKRCfTeo72BGtkF" name="Page-1">
    <mxGraphModel dx="1350" dy="773" grid="1" gridSize="10" guides="1" tooltips="1" connect="1" arrows="1" fold="1" page="1" pageScale="1" pageWidth="827" pageHeight="1169" math="0" shadow="0">
      <root>
        <mxCell id="0" />
        <mxCell id="1" parent="0" />
        <mxCell id="kPaHrOHMG2eySoIag-1M-30" value="" style="edgeStyle=orthogonalEdgeStyle;rounded=0;orthogonalLoop=1;jettySize=auto;html=1;" parent="1" source="oPO_9aN8l0oO0LtUnZyv-3" target="kPaHrOHMG2eySoIag-1M-29" edge="1">
          <mxGeometry relative="1" as="geometry" />
        </mxCell>
        <mxCell id="oPO_9aN8l0oO0LtUnZyv-3" value="DNS Resolver" style="ellipse;whiteSpace=wrap;html=1;fontSize=11;fillColor=#083F75;strokeColor=#06315C;fontColor=#ffffff;dashed=0;" parent="1" vertex="1">
          <mxGeometry x="543.5" y="110" width="120" height="60" as="geometry" />
        </mxCell>
        <mxCell id="kPaHrOHMG2eySoIag-1M-11" value="" style="edgeStyle=orthogonalEdgeStyle;rounded=0;orthogonalLoop=1;jettySize=auto;html=1;" parent="1" edge="1">
          <mxGeometry relative="1" as="geometry">
            <mxPoint x="390" y="310" as="sourcePoint" />
            <mxPoint x="390" y="370" as="targetPoint" />
          </mxGeometry>
        </mxCell>
        <mxCell id="BXKDkUwBHxZ7MNdu9fd9-51" style="edgeStyle=orthogonalEdgeStyle;rounded=0;orthogonalLoop=1;jettySize=auto;html=1;" parent="1" source="kPaHrOHMG2eySoIag-1M-12" target="kPaHrOHMG2eySoIag-1M-45" edge="1">
          <mxGeometry relative="1" as="geometry" />
        </mxCell>
        <mxCell id="kPaHrOHMG2eySoIag-1M-12" value="" style="swimlane;startSize=0;" parent="1" vertex="1">
          <mxGeometry x="290" y="430" width="200" height="100" as="geometry" />
        </mxCell>
        <mxCell id="kPaHrOHMG2eySoIag-1M-14" value="" style="aspect=fixed;perimeter=ellipsePerimeter;html=1;align=center;shadow=0;dashed=0;spacingTop=3;image;image=img/lib/active_directory/generic_server.svg;" parent="kPaHrOHMG2eySoIag-1M-12" vertex="1">
          <mxGeometry x="20" y="30" width="28.000000000000004" height="50" as="geometry" />
        </mxCell>
        <mxCell id="kPaHrOHMG2eySoIag-1M-15" value="" style="aspect=fixed;perimeter=ellipsePerimeter;html=1;align=center;shadow=0;dashed=0;spacingTop=3;image;image=img/lib/active_directory/generic_server.svg;" parent="kPaHrOHMG2eySoIag-1M-12" vertex="1">
          <mxGeometry x="70" y="30" width="28.000000000000004" height="50" as="geometry" />
        </mxCell>
        <mxCell id="kPaHrOHMG2eySoIag-1M-16" value="" style="aspect=fixed;perimeter=ellipsePerimeter;html=1;align=center;shadow=0;dashed=0;spacingTop=3;image;image=img/lib/active_directory/generic_server.svg;" parent="kPaHrOHMG2eySoIag-1M-12" vertex="1">
          <mxGeometry x="120" y="30" width="28.000000000000004" height="50" as="geometry" />
        </mxCell>
        <mxCell id="kPaHrOHMG2eySoIag-1M-17" value="" style="aspect=fixed;perimeter=ellipsePerimeter;html=1;align=center;shadow=0;dashed=0;spacingTop=3;image;image=img/lib/active_directory/generic_server.svg;" parent="kPaHrOHMG2eySoIag-1M-12" vertex="1">
          <mxGeometry x="166" y="30" width="28.000000000000004" height="50" as="geometry" />
        </mxCell>
        <mxCell id="kPaHrOHMG2eySoIag-1M-21" style="edgeStyle=orthogonalEdgeStyle;rounded=0;orthogonalLoop=1;jettySize=auto;html=1;exitX=0.49;exitY=1;exitDx=0;exitDy=0;exitPerimeter=0;entryX=0.5;entryY=0;entryDx=0;entryDy=0;" parent="1" source="kPaHrOHMG2eySoIag-1M-18" target="kPaHrOHMG2eySoIag-1M-12" edge="1">
          <mxGeometry relative="1" as="geometry" />
        </mxCell>
        <mxCell id="kPaHrOHMG2eySoIag-1M-18" value="" style="sketch=0;aspect=fixed;pointerEvents=1;shadow=0;dashed=0;html=1;strokeColor=none;labelPosition=center;verticalLabelPosition=bottom;verticalAlign=top;align=center;fillColor=#00188D;shape=mxgraph.azure.load_balancer_generic" parent="1" vertex="1">
          <mxGeometry x="375.2" y="370" width="29.6" height="40" as="geometry" />
        </mxCell>
        <mxCell id="kPaHrOHMG2eySoIag-1M-32" value="" style="edgeStyle=orthogonalEdgeStyle;rounded=0;orthogonalLoop=1;jettySize=auto;html=1;" parent="1" source="kPaHrOHMG2eySoIag-1M-23" edge="1">
          <mxGeometry relative="1" as="geometry">
            <mxPoint x="530" y="287.5" as="targetPoint" />
          </mxGeometry>
        </mxCell>
        <mxCell id="BXKDkUwBHxZ7MNdu9fd9-69" style="edgeStyle=orthogonalEdgeStyle;rounded=0;orthogonalLoop=1;jettySize=auto;html=1;entryX=1;entryY=0.77;entryDx=0;entryDy=0;entryPerimeter=0;" parent="1" source="kPaHrOHMG2eySoIag-1M-23" target="BXKDkUwBHxZ7MNdu9fd9-64" edge="1">
          <mxGeometry relative="1" as="geometry">
            <Array as="points">
              <mxPoint x="390" y="350" />
              <mxPoint x="135" y="350" />
            </Array>
          </mxGeometry>
        </mxCell>
        <mxCell id="kPaHrOHMG2eySoIag-1M-23" value="" style="outlineConnect=0;dashed=0;verticalLabelPosition=bottom;verticalAlign=top;align=center;html=1;shape=mxgraph.aws3.api_gateway;fillColor=#D9A741;gradientColor=none;" parent="1" vertex="1">
          <mxGeometry x="351.75" y="250" width="76.5" height="93" as="geometry" />
        </mxCell>
        <mxCell id="kPaHrOHMG2eySoIag-1M-24" value="" style="aspect=fixed;html=1;points=[];align=center;image;fontSize=12;image=img/lib/azure2/app_services/CDN_Profiles.svg;" parent="1" vertex="1">
          <mxGeometry x="195" y="145" width="68" height="40" as="geometry" />
        </mxCell>
        <mxCell id="kPaHrOHMG2eySoIag-1M-28" value="CDN" style="text;html=1;align=center;verticalAlign=middle;resizable=0;points=[];autosize=1;strokeColor=none;fillColor=none;" parent="1" vertex="1">
          <mxGeometry x="210" y="150" width="50" height="30" as="geometry" />
        </mxCell>
        <mxCell id="kPaHrOHMG2eySoIag-1M-29" value="" style="fillColor=#28A8E0;verticalLabelPosition=bottom;sketch=0;html=1;strokeColor=#ffffff;verticalAlign=top;align=center;points=[[0.145,0.145,0],[0.5,0,0],[0.855,0.145,0],[1,0.5,0],[0.855,0.855,0],[0.5,1,0],[0.145,0.855,0],[0,0.5,0]];pointerEvents=1;shape=mxgraph.cisco_safe.compositeIcon;bgIcon=ellipse;resIcon=mxgraph.cisco_safe.capability.dns;" parent="1" vertex="1">
          <mxGeometry x="690" y="120" width="43" height="43" as="geometry" />
        </mxCell>
        <mxCell id="kPaHrOHMG2eySoIag-1M-33" value="" style="edgeStyle=orthogonalEdgeStyle;rounded=0;orthogonalLoop=1;jettySize=auto;html=1;" parent="1" target="kPaHrOHMG2eySoIag-1M-23" edge="1">
          <mxGeometry relative="1" as="geometry">
            <mxPoint x="530" y="287.5" as="sourcePoint" />
          </mxGeometry>
        </mxCell>
        <mxCell id="kPaHrOHMG2eySoIag-1M-34" value="Credentials" style="text;html=1;align=center;verticalAlign=middle;resizable=0;points=[];autosize=1;strokeColor=none;fillColor=none;" parent="1" vertex="1">
          <mxGeometry x="440" y="265" width="80" height="30" as="geometry" />
        </mxCell>
        <mxCell id="kPaHrOHMG2eySoIag-1M-35" value="JWT" style="text;html=1;align=center;verticalAlign=middle;resizable=0;points=[];autosize=1;strokeColor=none;fillColor=none;" parent="1" vertex="1">
          <mxGeometry x="445" y="295" width="50" height="30" as="geometry" />
        </mxCell>
        <mxCell id="kPaHrOHMG2eySoIag-1M-37" value="API Gateway" style="text;html=1;align=center;verticalAlign=middle;resizable=0;points=[];autosize=1;strokeColor=none;fillColor=none;" parent="1" vertex="1">
          <mxGeometry x="290" y="281.5" width="90" height="30" as="geometry" />
        </mxCell>
        <mxCell id="kPaHrOHMG2eySoIag-1M-39" value="" style="aspect=fixed;perimeter=ellipsePerimeter;html=1;align=center;shadow=0;dashed=0;spacingTop=3;image;image=img/lib/active_directory/database.svg;" parent="1" vertex="1">
          <mxGeometry x="145.5" y="573.5" width="50" height="37" as="geometry" />
        </mxCell>
        <mxCell id="kPaHrOHMG2eySoIag-1M-40" value="" style="aspect=fixed;perimeter=ellipsePerimeter;html=1;align=center;shadow=0;dashed=0;spacingTop=3;image;image=img/lib/active_directory/database.svg;" parent="1" vertex="1">
          <mxGeometry x="175.5" y="583.5" width="50" height="37" as="geometry" />
        </mxCell>
        <mxCell id="kPaHrOHMG2eySoIag-1M-41" value="" style="aspect=fixed;perimeter=ellipsePerimeter;html=1;align=center;shadow=0;dashed=0;spacingTop=3;image;image=img/lib/active_directory/database.svg;" parent="1" vertex="1">
          <mxGeometry x="205.5" y="593.5" width="50" height="37" as="geometry" />
        </mxCell>
        <mxCell id="kPaHrOHMG2eySoIag-1M-43" value="" style="sketch=0;aspect=fixed;html=1;points=[];align=center;image;fontSize=12;image=img/lib/mscae/Cache_Redis_Product.svg;" parent="1" vertex="1">
          <mxGeometry x="460" y="577.5" width="50" height="42" as="geometry" />
        </mxCell>
        <mxCell id="kPaHrOHMG2eySoIag-1M-45" value="Master" style="text;html=1;align=center;verticalAlign=middle;resizable=0;points=[];autosize=1;strokeColor=none;fillColor=none;" parent="1" vertex="1">
          <mxGeometry x="138.5" y="563.5" width="60" height="30" as="geometry" />
        </mxCell>
        <mxCell id="kPaHrOHMG2eySoIag-1M-49" value="Load Balancer" style="text;html=1;align=center;verticalAlign=middle;resizable=0;points=[];autosize=1;strokeColor=none;fillColor=none;" parent="1" vertex="1">
          <mxGeometry x="285" y="360" width="100" height="30" as="geometry" />
        </mxCell>
        <mxCell id="BXKDkUwBHxZ7MNdu9fd9-18" value="" style="edgeStyle=orthogonalEdgeStyle;rounded=0;orthogonalLoop=1;jettySize=auto;html=1;" parent="1" source="BXKDkUwBHxZ7MNdu9fd9-1" target="kPaHrOHMG2eySoIag-1M-28" edge="1">
          <mxGeometry relative="1" as="geometry" />
        </mxCell>
        <mxCell id="BXKDkUwBHxZ7MNdu9fd9-19" value="" style="edgeStyle=orthogonalEdgeStyle;rounded=0;orthogonalLoop=1;jettySize=auto;html=1;" parent="1" source="BXKDkUwBHxZ7MNdu9fd9-1" target="kPaHrOHMG2eySoIag-1M-37" edge="1">
          <mxGeometry relative="1" as="geometry" />
        </mxCell>
        <mxCell id="BXKDkUwBHxZ7MNdu9fd9-27" value="" style="edgeStyle=orthogonalEdgeStyle;rounded=0;orthogonalLoop=1;jettySize=auto;html=1;" parent="1" source="BXKDkUwBHxZ7MNdu9fd9-1" target="oPO_9aN8l0oO0LtUnZyv-3" edge="1">
          <mxGeometry relative="1" as="geometry" />
        </mxCell>
        <mxCell id="BXKDkUwBHxZ7MNdu9fd9-1" value="" style="swimlane;startSize=0;" parent="1" vertex="1">
          <mxGeometry x="300" y="90" width="210" height="100.5" as="geometry" />
        </mxCell>
        <mxCell id="BXKDkUwBHxZ7MNdu9fd9-11" value="" style="verticalLabelPosition=bottom;sketch=0;aspect=fixed;html=1;verticalAlign=top;strokeColor=none;align=center;outlineConnect=0;shape=mxgraph.citrix.laptop_2;" parent="BXKDkUwBHxZ7MNdu9fd9-1" vertex="1">
          <mxGeometry y="26.75" width="61" height="45.49" as="geometry" />
        </mxCell>
        <mxCell id="BXKDkUwBHxZ7MNdu9fd9-15" value="" style="html=1;verticalLabelPosition=bottom;align=center;labelBackgroundColor=#ffffff;verticalAlign=top;strokeWidth=2;strokeColor=#0080F0;shadow=0;dashed=0;shape=mxgraph.ios7.icons.smartphone;" parent="BXKDkUwBHxZ7MNdu9fd9-1" vertex="1">
          <mxGeometry x="70" y="22.5" width="25" height="47" as="geometry" />
        </mxCell>
        <mxCell id="BXKDkUwBHxZ7MNdu9fd9-24" value="" style="outlineConnect=0;dashed=0;verticalLabelPosition=bottom;verticalAlign=top;align=center;html=1;shape=mxgraph.aws3.sensor;fillColor=#5294CF;gradientColor=none;" parent="BXKDkUwBHxZ7MNdu9fd9-1" vertex="1">
          <mxGeometry x="100" y="19" width="50" height="50.5" as="geometry" />
        </mxCell>
        <mxCell id="BXKDkUwBHxZ7MNdu9fd9-26" value="" style="html=1;verticalLabelPosition=bottom;align=center;labelBackgroundColor=#ffffff;verticalAlign=top;strokeWidth=2;strokeColor=#0080F0;shadow=0;dashed=0;shape=mxgraph.ios7.icons.settings;" parent="BXKDkUwBHxZ7MNdu9fd9-1" vertex="1">
          <mxGeometry x="160" y="22.5" width="40" height="47.5" as="geometry" />
        </mxCell>
        <mxCell id="BXKDkUwBHxZ7MNdu9fd9-22" value="" style="fillColor=#28A8E0;verticalLabelPosition=bottom;sketch=0;html=1;strokeColor=#ffffff;verticalAlign=top;align=center;points=[[0.145,0.145,0],[0.5,0,0],[0.855,0.145,0],[1,0.5,0],[0.855,0.855,0],[0.5,1,0],[0.145,0.855,0],[0,0.5,0]];pointerEvents=1;shape=mxgraph.cisco_safe.compositeIcon;bgIcon=ellipse;resIcon=mxgraph.cisco_safe.capability.identity_authorization;" parent="1" vertex="1">
          <mxGeometry x="530" y="250" width="60" height="58" as="geometry" />
        </mxCell>
        <mxCell id="BXKDkUwBHxZ7MNdu9fd9-23" value="Authorization&lt;br&gt;Service" style="text;html=1;align=center;verticalAlign=middle;resizable=0;points=[];autosize=1;strokeColor=none;fillColor=none;" parent="1" vertex="1">
          <mxGeometry x="520" y="303" width="90" height="40" as="geometry" />
        </mxCell>
        <mxCell id="BXKDkUwBHxZ7MNdu9fd9-46" style="edgeStyle=orthogonalEdgeStyle;rounded=0;orthogonalLoop=1;jettySize=auto;html=1;entryX=0.5;entryY=1;entryDx=0;entryDy=0;" parent="1" source="BXKDkUwBHxZ7MNdu9fd9-39" target="kPaHrOHMG2eySoIag-1M-16" edge="1">
          <mxGeometry relative="1" as="geometry" />
        </mxCell>
        <mxCell id="BXKDkUwBHxZ7MNdu9fd9-39" value="" style="sketch=0;outlineConnect=0;fontColor=#232F3E;gradientColor=none;fillColor=#B0084D;strokeColor=none;dashed=0;verticalLabelPosition=bottom;verticalAlign=top;align=center;html=1;fontSize=12;fontStyle=0;aspect=fixed;pointerEvents=1;shape=mxgraph.aws4.mq_broker;" parent="1" vertex="1">
          <mxGeometry x="294" y="568.5" width="60" height="60" as="geometry" />
        </mxCell>
        <mxCell id="BXKDkUwBHxZ7MNdu9fd9-40" value="" style="edgeStyle=orthogonalEdgeStyle;rounded=0;orthogonalLoop=1;jettySize=auto;html=1;" parent="1" source="kPaHrOHMG2eySoIag-1M-14" target="BXKDkUwBHxZ7MNdu9fd9-39" edge="1">
          <mxGeometry relative="1" as="geometry" />
        </mxCell>
        <mxCell id="BXKDkUwBHxZ7MNdu9fd9-47" value="Message Queue" style="text;html=1;align=center;verticalAlign=middle;resizable=0;points=[];autosize=1;strokeColor=none;fillColor=none;" parent="1" vertex="1">
          <mxGeometry x="280" y="619.5" width="110" height="30" as="geometry" />
        </mxCell>
        <mxCell id="BXKDkUwBHxZ7MNdu9fd9-52" value="Write" style="text;html=1;align=center;verticalAlign=middle;resizable=0;points=[];autosize=1;strokeColor=none;fillColor=none;" parent="1" vertex="1">
          <mxGeometry x="185" y="455" width="50" height="30" as="geometry" />
        </mxCell>
        <mxCell id="BXKDkUwBHxZ7MNdu9fd9-55" value="Cache" style="text;html=1;align=center;verticalAlign=middle;resizable=0;points=[];autosize=1;strokeColor=none;fillColor=none;" parent="1" vertex="1">
          <mxGeometry x="455" y="620.5" width="60" height="30" as="geometry" />
        </mxCell>
        <mxCell id="BXKDkUwBHxZ7MNdu9fd9-57" value="NoSQL" style="text;html=1;align=center;verticalAlign=middle;resizable=0;points=[];autosize=1;strokeColor=none;fillColor=none;" parent="1" vertex="1">
          <mxGeometry x="538.5" y="619.5" width="60" height="30" as="geometry" />
        </mxCell>
        <mxCell id="BXKDkUwBHxZ7MNdu9fd9-58" value="Website / Mobile / IoT / Thirdparty API" style="text;html=1;align=center;verticalAlign=middle;resizable=0;points=[];autosize=1;strokeColor=none;fillColor=none;" parent="1" vertex="1">
          <mxGeometry x="294" y="55" width="220" height="30" as="geometry" />
        </mxCell>
        <mxCell id="BXKDkUwBHxZ7MNdu9fd9-60" value="Slave" style="text;html=1;align=center;verticalAlign=middle;resizable=0;points=[];autosize=1;strokeColor=none;fillColor=none;" parent="1" vertex="1">
          <mxGeometry x="198.5" y="589.5" width="50" height="30" as="geometry" />
        </mxCell>
        <mxCell id="BXKDkUwBHxZ7MNdu9fd9-62" style="edgeStyle=orthogonalEdgeStyle;rounded=0;orthogonalLoop=1;jettySize=auto;html=1;entryX=0;entryY=0.75;entryDx=0;entryDy=0;" parent="1" source="BXKDkUwBHxZ7MNdu9fd9-61" target="kPaHrOHMG2eySoIag-1M-12" edge="1">
          <mxGeometry relative="1" as="geometry" />
        </mxCell>
        <mxCell id="BXKDkUwBHxZ7MNdu9fd9-61" value="Slave" style="text;html=1;align=center;verticalAlign=middle;resizable=0;points=[];autosize=1;strokeColor=none;fillColor=none;" parent="1" vertex="1">
          <mxGeometry x="180" y="577.5" width="50" height="30" as="geometry" />
        </mxCell>
        <mxCell id="BXKDkUwBHxZ7MNdu9fd9-63" value="Read" style="text;html=1;align=center;verticalAlign=middle;resizable=0;points=[];autosize=1;strokeColor=none;fillColor=none;" parent="1" vertex="1">
          <mxGeometry x="213" y="530" width="50" height="30" as="geometry" />
        </mxCell>
        <mxCell id="BXKDkUwBHxZ7MNdu9fd9-70" style="edgeStyle=orthogonalEdgeStyle;rounded=0;orthogonalLoop=1;jettySize=auto;html=1;entryX=0.158;entryY=1.083;entryDx=0;entryDy=0;entryPerimeter=0;" parent="1" source="BXKDkUwBHxZ7MNdu9fd9-64" target="kPaHrOHMG2eySoIag-1M-45" edge="1">
          <mxGeometry relative="1" as="geometry">
            <Array as="points">
              <mxPoint x="110" y="596" />
            </Array>
          </mxGeometry>
        </mxCell>
        <mxCell id="BXKDkUwBHxZ7MNdu9fd9-64" value="" style="verticalLabelPosition=bottom;html=1;verticalAlign=top;align=center;strokeColor=none;fillColor=#00BEF2;shape=mxgraph.azure.service_bus;pointerEvents=1;" parent="1" vertex="1">
          <mxGeometry x="80" y="311.5" width="45" height="50" as="geometry" />
        </mxCell>
        <mxCell id="BXKDkUwBHxZ7MNdu9fd9-71" value="Enterprise Service Bus" style="text;html=1;align=center;verticalAlign=middle;resizable=0;points=[];autosize=1;strokeColor=none;fillColor=none;" parent="1" vertex="1">
          <mxGeometry x="20" y="287.5" width="150" height="30" as="geometry" />
        </mxCell>
        <mxCell id="BXKDkUwBHxZ7MNdu9fd9-78" style="edgeStyle=orthogonalEdgeStyle;rounded=0;orthogonalLoop=1;jettySize=auto;html=1;entryX=0.5;entryY=0;entryDx=0;entryDy=0;" parent="1" source="BXKDkUwBHxZ7MNdu9fd9-72" target="BXKDkUwBHxZ7MNdu9fd9-76" edge="1">
          <mxGeometry relative="1" as="geometry" />
        </mxCell>
        <mxCell id="BXKDkUwBHxZ7MNdu9fd9-79" style="edgeStyle=orthogonalEdgeStyle;rounded=0;orthogonalLoop=1;jettySize=auto;html=1;" parent="1" source="BXKDkUwBHxZ7MNdu9fd9-72" target="BXKDkUwBHxZ7MNdu9fd9-75" edge="1">
          <mxGeometry relative="1" as="geometry" />
        </mxCell>
        <mxCell id="BXKDkUwBHxZ7MNdu9fd9-72" value="" style="outlineConnect=0;dashed=0;verticalLabelPosition=bottom;verticalAlign=top;align=center;html=1;shape=mxgraph.aws3.lambda_function;fillColor=#F58534;gradientColor=none;" parent="1" vertex="1">
          <mxGeometry x="634" y="420" width="36" height="41" as="geometry" />
        </mxCell>
        <mxCell id="BXKDkUwBHxZ7MNdu9fd9-73" value="FaaS" style="text;html=1;align=center;verticalAlign=middle;resizable=0;points=[];autosize=1;strokeColor=none;fillColor=none;" parent="1" vertex="1">
          <mxGeometry x="604.5" y="455" width="50" height="30" as="geometry" />
        </mxCell>
        <mxCell id="BXKDkUwBHxZ7MNdu9fd9-75" value="Monitoring" style="sketch=0;outlineConnect=0;fontColor=#232F3E;gradientColor=none;strokeColor=#232F3E;fillColor=#ffffff;dashed=0;verticalLabelPosition=bottom;verticalAlign=top;align=center;html=1;fontSize=12;fontStyle=0;aspect=fixed;shape=mxgraph.aws4.resourceIcon;resIcon=mxgraph.aws4.monitoring;" parent="1" vertex="1">
          <mxGeometry x="673" y="559.5" width="60" height="60" as="geometry" />
        </mxCell>
        <mxCell id="BXKDkUwBHxZ7MNdu9fd9-76" value="Cloud&#xa;Logging" style="sketch=0;html=1;verticalAlign=top;labelPosition=center;verticalLabelPosition=bottom;align=center;spacingTop=-6;fontSize=11;fontStyle=1;fontColor=#999999;shape=image;aspect=fixed;imageAspect=0;image=data:image/svg+xml,PHN2ZyB4bWxucz0iaHR0cDovL3d3dy53My5vcmcvMjAwMC9zdmciIHhtbG5zOnY9Imh0dHBzOi8vdmVjdGEuaW8vbmFubyIgd2lkdGg9IjIwIiBoZWlnaHQ9IjE5IiB2aWV3Qm94PSIwIDAgMjAgMTkiPiYjeGE7CTxzdHlsZSB0eXBlPSJ0ZXh0L2NzcyI+JiN4YTsJLnN0MHtmaWxsOiM0Mjg1ZjQ7fSYjeGE7CS5zdDF7ZmlsbDojNjY5ZGY2O30mI3hhOwkuc3Qye2ZpbGw6I2FlY2JmYTt9JiN4YTsJPC9zdHlsZT4mI3hhOwk8ZyBjbGFzcz0ic3QwIj4mI3hhOwkJPHBhdGggZD0iTTQgOWg0djJINHptLTIgN2g2djJIMnoiLz4mI3hhOwkJPHBhdGggZD0iTTQgNEgydjEyaDJ6Ii8+JiN4YTsJPC9nPiYjeGE7CTxwYXRoIGNsYXNzPSJzdDEiIGQ9Ik0yMCAxSDd2NGgxM3ptMCA3SDd2NGgxM3ptMCA3SDd2NGgxM3oiLz4mI3hhOwk8cGF0aCBjbGFzcz0ic3QyIiBkPSJNNiAwSDB2Nmg2eiIvPiYjeGE7PC9zdmc+;" parent="1" vertex="1">
          <mxGeometry x="750" y="568.5" width="54.08" height="51.5" as="geometry" />
        </mxCell>
        <mxCell id="BXKDkUwBHxZ7MNdu9fd9-77" value="Microservices" style="text;html=1;align=center;verticalAlign=middle;resizable=0;points=[];autosize=1;strokeColor=none;fillColor=none;" parent="1" vertex="1">
          <mxGeometry x="310" y="425" width="100" height="30" as="geometry" />
        </mxCell>
        <mxCell id="BXKDkUwBHxZ7MNdu9fd9-81" value="" style="image;html=1;image=img/lib/clip_art/computers/Database_128x128.png" parent="1" vertex="1">
          <mxGeometry x="544" y="575" width="49" height="45" as="geometry" />
        </mxCell>
        <mxCell id="BXKDkUwBHxZ7MNdu9fd9-86" style="edgeStyle=orthogonalEdgeStyle;rounded=0;orthogonalLoop=1;jettySize=auto;html=1;exitX=0.75;exitY=0.5;exitDx=0;exitDy=0;exitPerimeter=0;entryX=0;entryY=0.5;entryDx=0;entryDy=0;entryPerimeter=0;" parent="1" source="BXKDkUwBHxZ7MNdu9fd9-82" target="BXKDkUwBHxZ7MNdu9fd9-72" edge="1">
          <mxGeometry relative="1" as="geometry" />
        </mxCell>
        <mxCell id="BXKDkUwBHxZ7MNdu9fd9-82" value="" style="outlineConnect=0;dashed=0;verticalLabelPosition=bottom;verticalAlign=top;align=center;html=1;shape=mxgraph.aws3.cloudwatch;fillColor=#759C3E;gradientColor=none;" parent="1" vertex="1">
          <mxGeometry x="552" y="415" width="52.5" height="50" as="geometry" />
        </mxCell>
        <mxCell id="BXKDkUwBHxZ7MNdu9fd9-87" value="Cloud logs" style="text;html=1;align=center;verticalAlign=middle;resizable=0;points=[];autosize=1;strokeColor=none;fillColor=none;" parent="1" vertex="1">
          <mxGeometry x="530" y="461" width="80" height="30" as="geometry" />
        </mxCell>
      </root>
    </mxGraphModel>
  </diagram>
</mxfile>
